<?xml version="1.0" encoding="UTF-8" standalone="no"?>
<!-- Created with Inkscape (http://www.inkscape.org/) -->

<svg
   xmlns:dc="http://purl.org/dc/elements/1.1/"
   xmlns:cc="http://creativecommons.org/ns#"
   xmlns:rdf="http://www.w3.org/1999/02/22-rdf-syntax-ns#"
   xmlns:svg="http://www.w3.org/2000/svg"
   xmlns="http://www.w3.org/2000/svg"
   xmlns:sodipodi="http://sodipodi.sourceforge.net/DTD/sodipodi-0.dtd"
   xmlns:inkscape="http://www.inkscape.org/namespaces/inkscape"
   width="744.09448"
   height="1052.3622"
   id="svg4976"
   version="1.1"
   inkscape:version="0.48.3.1 r9886"
   sodipodi:docname="DerpFawkes.svg">
  <defs
     id="defs4978" />
  <sodipodi:namedview
     id="base"
     pagecolor="#ffffff"
     bordercolor="#666666"
     borderopacity="1.0"
     inkscape:pageopacity="0.0"
     inkscape:pageshadow="2"
     inkscape:zoom="0.7"
     inkscape:cx="419.4258"
     inkscape:cy="497.18974"
     inkscape:document-units="px"
     inkscape:current-layer="g5001"
     showgrid="false"
     inkscape:window-width="1920"
     inkscape:window-height="1056"
     inkscape:window-x="0"
     inkscape:window-y="24"
     inkscape:window-maximized="0" />
  <metadata
     id="metadata4981">
    <rdf:RDF>
      <cc:Work
         rdf:about="">
        <dc:format>image/svg+xml</dc:format>
        <dc:type
           rdf:resource="http://purl.org/dc/dcmitype/StillImage" />
        <dc:title></dc:title>
      </cc:Work>
    </rdf:RDF>
  </metadata>
  <g
     inkscape:label="Ebene 1"
     inkscape:groupmode="layer"
     id="layer1">
    <g
       id="g5001"
       transform="matrix(0.7834871,0,0,0.7834871,-12.691574,342.86836)">
      <g
         transform="matrix(8.5103266,0,0,-8.5103266,-8828.9358,3200.1392)"
         id="g11610">
        <path
           style="fill:#ffffff;stroke:none"
           d="m 1049.5999,397.19996 c 3.5462,-16.66666 0.9331,-33.33333 -0.6,-49.99999 4.8181,-20.97247 19.6459,-51.36395 45.6,-55 19.216,4.88301 36.4005,17.27367 47,54 -2.4069,17.65035 -4.1746,35.12641 -0.8,51.19999 -32,13.79974 -62.4,13.73359 -91.2,-0.2 z"
           id="path11608"
           inkscape:connector-curvature="0"
           sodipodi:nodetypes="cccccc" />
        <path
           inkscape:connector-curvature="0"
           style="fill:#000000;stroke:none"
           d="m 1368.9062,478.53125 c -37.7618,-0.0259 -45.3093,8.89646 -57.3124,13.625 3.5707,31.17303 0.7692,40.12216 -0.375,55.65625 -0.6172,3.95881 -0.6187,7.43286 -0.094,10.375 -0.054,-0.19579 -0.1186,-0.39746 -0.1562,-0.59375 2.6336,14.11985 10.8372,31.43686 18.75,43.09375 7.0108,10.3281 20.2476,20.8874 37.6562,24.75 0.7749,1.64408 1.3568,3.08564 1.5938,4.25 l 0,0.4375 c 0.012,-0.0766 0.017,-0.1705 0.031,-0.25 0.014,0.08 0.053,0.1731 0.062,0.25 l 0,-0.65625 c 0.2595,-1.12183 0.836,-2.48985 1.5625,-4.03125 17.4179,-3.85917 30.6429,-14.4182 37.6562,-24.75 7.5794,-11.16577 15.4128,-27.51329 18.375,-41.28125 0.01,-0.0321 0.024,-0.0617 0.031,-0.0937 0.011,-0.0718 0.021,-0.11709 0.031,-0.1875 0.1075,-0.50998 0.2188,-1.02896 0.3124,-1.53125 -0.055,0.2909 -0.1606,0.58624 -0.25,0.875 0.4096,-3.04624 0.3726,-4.79142 0.2188,-6.46875 0.016,-0.14195 0.013,-0.25324 0.031,-0.40625 -0.9033,-18.05605 -4.4438,-25.82465 -0.5937,-59.4375 -12.0267,-4.73786 -19.5751,-13.68636 -57.5313,-13.625 z m 0,3.90625 c 19.9578,-0.0146 38.8054,4.21164 54.9376,12.15625 -2.6307,20.3013 -0.019,45.83564 1.6562,58.59375 -1.4386,14.41634 -15.825,20.929 -37.4062,4.59375 7.0031,6.55364 13.8132,10.3566 19.6874,11.6875 l -3.9687,4.96875 c -6.809,0.36217 -12.0254,2.10315 -21.2187,0.40625 l -9,-8.6875 c 3.4352,-0.91043 6.0502,-3.0089 5.875,-4.28125 3.5068,0.15671 5.7079,1.43752 8.75,-2.125 -1.8908,2.0295 -5.5723,0.45055 -8.7813,-0.15625 -3.294,5.70686 -7.1561,3.76305 -10.375,4.25 -3.218,-0.48435 -7.0514,1.4541 -10.3437,-4.25 -3.2089,0.6068 -6.9217,2.18575 -8.8126,0.15625 3.0421,3.56252 5.2743,2.28171 8.7813,2.125 -0.1737,1.26235 2.3643,3.3527 5.75,4.28125 l -9.0313,8.6875 c -9.1932,1.6969 -14.4098,-0.0441 -21.2187,-0.40625 l -4.1875,-5.25 c 5.6279,-1.53331 12.0375,-5.24143 18.625,-11.40625 -19.5564,14.80255 -33.1685,10.84349 -36.625,-0.75 1.5365,-10.57827 5.0985,-39.73197 2.1562,-62.4375 16.0731,-7.91542 34.8735,-12.1398 54.75,-12.15625 z m -31.5312,29.46875 c -6.8261,0.13104 -13.428,2.68296 -16.8125,8.5 9.1258,-5.60389 31.6839,-0.75724 36.6875,9 2.7565,-0.73779 3.2614,-2.62823 2.25,-5.25 -1.6825,-7.4941 -12.1485,-12.44149 -22.125,-12.25 z m 60.4062,0 c -9.4768,0.3269 -18.9686,5.15032 -20.5624,12.25 -1.0113,2.62177 -0.5067,4.51221 2.25,5.25 5.0037,-9.75724 27.5617,-14.60389 36.6874,-9 -3.6448,-6.2645 -11.0042,-8.75425 -18.375,-8.5 z m -66.5,16.75 c -4.4033,0.0484 -8.5573,1.48376 -11.2187,5.21875 5.6961,-2.43982 14.6257,-4.4556 27.875,3.125 3.13,1.7847 3.731,1.58835 5.1563,0.5625 -0.7772,-0.0319 -2.0633,-0.78505 -4.9063,-3.0625 -3.514,-3.02066 -10.4706,-5.91442 -16.9063,-5.84375 z m 21.8126,8.90625 c 0.7983,0.0327 1.0737,-0.68546 1.9687,-1.3125 -0.844,0.5185 -1.472,0.95502 -1.9687,1.3125 z m 51.3124,-8.90625 c -6.1376,0.22135 -12.5461,2.98206 -15.875,5.84375 -2.8814,2.30823 -4.132,3.04983 -4.9062,3.0625 1.4253,1.02585 2.0262,1.2222 5.1562,-0.5625 13.2493,-7.5806 22.1788,-5.56482 27.875,-3.125 -2.8662,-4.0223 -7.4763,-5.3909 -12.25,-5.21875 z m -20.7812,8.90625 c -0.492,-0.35412 -1.106,-0.79991 -1.9375,-1.3125 0.8832,0.61879 1.1632,1.32517 1.9375,1.3125 z M 1322.5625,534.5 c -2.5375,0.17195 -4.5665,1.77095 -5.25,3.71875 1.0677,-1.26555 6.3305,-2.95011 8.9375,-2.96875 -1.2815,-0.61846 -2.5341,-0.82815 -3.6875,-0.75 z m 90.9063,0 c -0.9534,0.0358 -1.9747,0.25521 -3,0.75 2.6068,0.0186 7.8697,1.7032 8.9374,2.96875 -0.7457,-2.12486 -3.0771,-3.82599 -5.9374,-3.71875 z m -11.625,3.34375 c -0.4734,-0.008 -0.9524,10e-4 -1.4376,0.0312 -4.9902,0.3094 -10.4835,2.66228 -14.6874,7.625 6.0073,-6.10855 19.6987,-7.75149 24.1562,-5.21875 -2.1018,-1.49459 -4.91,-2.38649 -8.0312,-2.4375 z m -67.1563,0.0312 c -3.048,0.0823 -5.7851,0.94299 -7.8437,2.40625 4.4587,-2.53375 18.1802,-0.8898 24.1874,5.21875 -4.6712,-5.51411 -10.9467,-7.77071 -16.3437,-7.625 z m 89.0313,25.75 0.031,0.125 c -1.1132,4.84426 -4.6578,15.24389 -6.4375,18.5 -3.7922,6.93786 -8.2635,13.51815 -12.625,18.40625 -7.787,8.72714 -18.8685,17.9544 -31.625,19.9375 3.6201,-7.12895 7.7013,-15.75947 3.7187,-21.25 4.3179,-0.48127 8.8228,-1.41099 13.5313,-2.84375 -14.5,1.28265 -29,1.04561 -43.5,0 4.6703,1.2787 9.462,2.27495 14.4375,2.8125 -4.011,5.49171 0.093,14.14113 3.7188,21.28125 -12.7697,-1.97299 -23.8317,-11.20334 -31.625,-19.9375 -4.3614,-4.8881 -8.8327,-11.46839 -12.625,-18.40625 -1.5173,-2.77599 -4.2995,-10.70871 -5.7813,-16 0.9525,0.9948 2.0266,1.8037 3.25,2.40625 l 17.2813,27.46875 -13.9063,-26.375 c 0.4448,0.0815 0.9093,0.14607 1.375,0.1875 8.8519,12.26274 7.5087,17.71955 35.4687,19.65625 3.7003,0.33655 7.3113,-0.35791 10.5,2.21875 0.013,0.0891 0.034,0.1497 0.063,0.125 0.012,-0.01 0.02,-0.0215 0.031,-0.0312 0.017,0.0148 0.045,0.0163 0.062,0.0312 0.029,0.0248 0.051,-0.0358 0.062,-0.125 3.1868,-2.57161 6.7705,-1.88239 10.4688,-2.21875 28.1117,-1.9472 26.6437,-7.43994 35.6562,-19.84375 0.4745,-0.0902 0.9259,-0.20805 1.375,-0.34375 l -14.0625,26.71875 18.0937,-28.8125 c 1.2172,-0.97486 2.2382,-2.20522 3.0626,-3.6875 z m -96.8126,6.21875 6.6563,9.28125 c 5.169,2.79101 10.5204,5.62105 23.625,3.84375 l 8,-5.90625 3.8125,-0.375 3.8125,0.375 8.0313,5.90625 c 13.1047,1.7773 18.4246,-1.05274 23.5937,-3.84375 l 6.5625,-9.1562 c 0.36,0.0264 0.712,0.0571 1.0625,0.0625 -9.0169,14.91602 -10.3391,14.1238 -33.3437,17.96875 -3.8506,0.27621 -8.4496,-0.22956 -9.7188,1.5625 -1.2694,-1.79244 -5.8682,-1.28629 -9.7188,-1.5625 -23.0346,-3.84999 -24.2948,-3.05449 -33.3437,-18.03125 0.3169,-0.0265 0.6449,-0.0824 0.9687,-0.125 z"
           id="path11445"
           transform="matrix(0.8,0,0,-0.8,0,792)" />
      </g>
      <text
         xml:space="preserve"
         style="font-size:20.46465302px;font-style:normal;font-variant:normal;font-weight:normal;font-stretch:normal;line-height:125%;letter-spacing:0px;word-spacing:0px;fill:#000000;fill-opacity:1;stroke:none;font-family:CreativeBlock BB extended;-inkscape-font-specification:CreativeBlock BB extended"
         x="748.15997"
         y="884.38776"
         id="text5056"
         sodipodi:linespacing="125%"><tspan
           sodipodi:role="line"
           id="tspan5058"
           x="748.15997"
           y="884.38776">felix@moomug.com</tspan></text>
    </g>
  </g>
</svg>
