<?xml version="1.0" encoding="UTF-8" standalone="no"?>
<!-- Created with Inkscape (http://www.inkscape.org/) -->

<svg
   xmlns:dc="http://purl.org/dc/elements/1.1/"
   xmlns:cc="http://creativecommons.org/ns#"
   xmlns:rdf="http://www.w3.org/1999/02/22-rdf-syntax-ns#"
   xmlns:svg="http://www.w3.org/2000/svg"
   xmlns="http://www.w3.org/2000/svg"
   xmlns:sodipodi="http://sodipodi.sourceforge.net/DTD/sodipodi-0.dtd"
   xmlns:inkscape="http://www.inkscape.org/namespaces/inkscape"
   width="744.09448"
   height="1052.3622"
   id="svg4976"
   version="1.1"
   inkscape:version="0.48.3.1 r9886"
   sodipodi:docname="GuyFawkesDerp_v2.svg">
  <defs
     id="defs4978" />
  <sodipodi:namedview
     id="base"
     pagecolor="#ffffff"
     bordercolor="#666666"
     borderopacity="1.0"
     inkscape:pageopacity="0.0"
     inkscape:pageshadow="2"
     inkscape:zoom="0.7"
     inkscape:cx="419.4258"
     inkscape:cy="497.18974"
     inkscape:document-units="px"
     inkscape:current-layer="g5001"
     showgrid="false"
     inkscape:window-width="1920"
     inkscape:window-height="1056"
     inkscape:window-x="0"
     inkscape:window-y="24"
     inkscape:window-maximized="0" />
  <metadata
     id="metadata4981">
    <rdf:RDF>
      <cc:Work
         rdf:about="">
        <dc:format>image/svg+xml</dc:format>
        <dc:type
           rdf:resource="http://purl.org/dc/dcmitype/StillImage" />
        <dc:title></dc:title>
      </cc:Work>
    </rdf:RDF>
  </metadata>
  <g
     inkscape:label="Ebene 1"
     inkscape:groupmode="layer"
     id="layer1">
    <g
       id="g5001"
       transform="matrix(0.7834871,0,0,0.7834871,-12.691574,342.86836)">
      <path
         style="fill:#ffffff;stroke:none"
         d="M 109.46642,-248.10721 C 135.72056,-65.696202 122.27103,62.336396 97.932087,184.42908 260.51879,740.86841 371.3953,730.60961 488.17591,791.90228 680.76846,730.95121 809.48171,522.80061 884.18699,190.19623 861.95439,43.71898 853.96285,-100.97812 872.65256,-242.34004 590.31731,-358.81608 340.6291,-341.43896 109.46642,-248.10721 z"
         id="path5052"
         inkscape:connector-curvature="0"
         sodipodi:nodetypes="cccccc" />
      <path
         style="fill:#000000;stroke:none"
         d="m 485.35043,-350.14964 0,0.0595 c -252.62582,0.63472 -303.9617,60.73819 -385.13233,92.71483 24.31026,212.234137 5.23279,273.18721 -2.557232,378.94734 -4.202024,26.95262 -4.227165,50.56087 -0.654134,70.59173 -0.367705,-1.333 -0.755081,-2.70762 -1.010996,-4.04401 17.930212,96.13158 87.370462,309.33738 141.242852,388.70053 47.73138,70.3164 124.23718,183.09876 242.75949,209.39636 2.02977,4.30658 3.77051,8.3221 5.35235,12.1915 l 0,0.11899 c 1.14246,2.75991 2.17763,5.44141 3.09248,7.96908 0.26273,0.78141 0.54024,1.56338 0.77312,2.31935 0.59397,1.92842 1.04286,3.77518 1.42726,5.53078 l 0,3.74664 c 0.024,-0.20497 0.11361,-0.42736 0.17828,-0.65417 l 0,0.65417 c 0.0816,-0.52148 0.14259,-1.12392 0.23798,-1.66518 0.095,0.54126 0.15621,1.1437 0.23787,1.66518 l 0,-0.83259 c 0.0864,0.29199 0.14758,0.57082 0.17829,0.83259 l 0,-3.74664 c 0.3844,-1.7556 0.83328,-3.60236 1.42725,-5.53078 0.25381,-0.7669 0.48593,-1.52567 0.77312,-2.31935 0.91485,-2.52767 2.00942,-5.20917 3.15198,-7.96908 l 0,-0.29736 c 1.56572,-3.81879 3.29322,-7.77043 5.29285,-12.01308 118.52222,-26.29761 195.02821,-139.07998 242.75949,-209.39637 53.87258,-79.36315 123.37223,-292.56897 141.30235,-388.70053 -0.25601,1.33638 -0.70269,2.71101 -1.07039,4.044 3.57312,-20.03085 3.54779,-43.6391 -0.65423,-70.59172 -7.79003,-105.760135 -26.86759,-166.713208 -2.55724,-378.94735 -81.16401,-31.97408 -132.49912,-92.07068 -385.07264,-92.71482 l 0,-0.0595 c -1.71436,-0.005 -3.4125,-0.002 -5.11447,0 -0.4487,-7.3e-4 -0.86899,5.4e-4 -1.30837,0 -1.69766,-0.002 -3.34465,-0.005 -5.05498,0 z m 5.70921,26.58341 c 1.91011,0.0322 3.86426,0.22687 5.76861,0.23788 l 0,-0.1784 c 133.43258,0.82387 259.59877,29.51346 367.64792,82.72375 -20.03194,154.585183 4.22832,353.07697 14.68919,425.0966 -23.53281,78.93144 -116.21551,105.89405 -249.36061,5.11449 44.84942,41.97166 88.47531,67.22956 126.79154,77.66874 l -28.48647,35.74189 c -46.35689,2.46561 -81.86477,14.28859 -144.45441,2.73565 l -61.49267,-59.11388 c 23.05073,-6.3218 40.31424,-20.60573 39.13177,-29.20011 23.87653,1.06691 39.05673,9.80315 59.76804,-14.45138 -12.87379,13.81735 -38.15906,3.06078 -60.00592,-1.07048 -22.27435,38.59144 -48.17354,25.82875 -69.99699,28.90276 -21.82354,-3.07401 -47.72274,9.68868 -69.99709,-28.90276 -21.84705,4.13126 -47.13222,14.88783 -60.00591,1.07048 20.71141,24.25453 35.89151,15.51829 59.76804,14.45138 -1.18257,8.59438 16.14043,22.87831 39.19116,29.20011 l -61.49266,59.11388 c -62.58964,11.55294 -98.09752,-0.27004 -144.45432,-2.73565 L 225.5229,267.09683 c 38.31623,-10.43918 81.94211,-35.69708 126.79154,-77.66874 -133.1451,100.77956 -225.7685,73.81695 -249.30122,-5.11449 10.46087,-72.01963 34.66173,-270.511417 14.62979,-425.0966 108.06518,-53.21818 234.25277,-81.90806 367.70742,-82.72375 l 0,0.1784 c 1.90435,-0.0105 3.79901,-0.20574 5.70921,-0.23788 z m -123.10441,103.30061 c -1.64786,0.005 -3.32739,0.0565 -4.99549,0.11899 -34.31591,1.28608 -72.67955,14.86495 -103.8359,36.99078 -37.89816,26.91359 -65.17624,66.63725 -61.90903,112.340153 29.84828,-66.520323 175.29162,-125.859983 240.85639,-90.157593 12.67766,-14.72095 8.30973,-27.25023 -7.43383,-38.12072 -15.66929,-14.64527 -37.96446,-21.23084 -62.68214,-21.17158 z m 246.20864,0 c -24.71759,-0.0592 -47.01276,6.52631 -62.68205,21.17157 -15.74346,10.8705 -20.11149,23.39978 -7.43384,38.12072 65.56487,-35.70238 211.00811,23.63729 240.8563,90.157605 3.26712,-45.702915 -24.01068,-85.426565 -61.90893,-112.340155 -31.15635,-22.12583 -69.52009,-35.7047 -103.8359,-36.99078 -1.66801,-0.0625 -3.34763,-0.11496 -4.99558,-0.11899 z M 320.6165,-106.31974 c -64.42451,0 -131.48965,82.918537 -131.48965,141.718687 0,58.800226 63.21441,130.539423 151.70977,102.765383 61.46829,-19.29169 111.09125,-75.484635 111.09125,-134.284845 0,-58.800166 -66.88675,-110.199225 -131.31137,-110.199225 z m 340.88609,0 c -64.42452,0 -131.25178,51.399059 -131.25178,110.199225 0,58.80021 49.56356,114.993155 111.03186,134.284845 88.49526,27.77404 151.70967,-43.965157 151.70967,-102.765383 0,-58.80015 -67.06524,-141.718687 -131.48975,-141.718687 z m -342.78909,7.017553 c 58.98014,0 120.42819,47.031159 120.42819,100.862308 0,53.831175 -45.42113,105.086069 -101.69492,122.747539 C 256.42986,149.73454 198.2853,84.115625 198.2853,30.284479 c 0,-53.831177 61.44796,-129.586666 120.4282,-129.586666 z m 344.69229,0 c 58.98024,0 120.42809,75.755489 120.42809,129.586666 0,53.831146 -58.14475,119.450061 -139.16156,94.023181 C 588.39853,106.64619 542.9775,55.391296 542.9775,1.560121 c 0,-53.831149 61.44804,-100.862308 120.42829,-100.862308 z m -305.739,78.322916 c -11.24868,0 -20.4579,13.837695 -20.4579,31.222123 0,17.384411 9.20922,31.519463 20.4579,31.519463 11.24877,0 20.22001,-14.135052 20.22001,-31.519463 0,-17.384428 -8.97124,-31.222123 -20.22001,-31.222123 z m 266.78561,0 c -11.24877,0 -20.16062,13.837695 -20.16062,31.222123 0,17.384411 8.91185,31.519463 20.16062,31.519463 11.24877,0 20.45789,-14.135052 20.45789,-31.519463 0,-17.384428 -9.20912,-31.222123 -20.45789,-31.222123 z M 122.99536,247.0552 c 6.48492,6.77287 13.79392,12.31159 22.12312,16.41391 l 93.60686,211.06154 -31.69784,-91.70383 c 86.52759,190.94593 144.87452,206.98652 283.08054,207.01753 0.66306,1.4e-4 1.29589,5.6e-4 1.9626,0 138.20602,-0.031 196.49346,-16.0716 283.02104,-207.01753 l -31.69783,91.70383 93.60686,-211.06154 c 8.3292,-4.10232 15.63819,-9.64104 22.12312,-16.41391 -10.08857,36.0245 -28.97988,90.05068 -39.31015,108.95033 -25.81888,47.23476 -69.91985,187.35685 -99.61344,220.63633 -53.05878,59.46442 -114.7257,163.13589 -201.66523,176.56852 24.68583,-48.61181 52.64252,-107.48164 25.33459,-144.87065 33.87451,-3.65977 66.44891,-10.44384 98.24568,-19.14956 -50.36135,3.63157 -100.69458,5.82388 -151.05564,5.94707 -50.34714,-0.12419 -100.70849,-2.3165 -151.05564,-5.94707 31.79668,8.70572 64.43057,15.48979 98.30508,19.14956 -27.30793,37.38901 0.58936,96.25884 25.27509,144.87065 C 376.64465,739.77775 314.97782,636.10628 261.91895,576.64186 232.22545,543.36238 188.18398,403.24029 162.365,356.00553 152.03482,337.10588 133.08392,283.0797 122.99536,247.0552 z m 50.19333,24.50193 c 1.4285,0.18973 2.838,0.46623 4.28186,0.5947 60.26606,83.48795 51.09215,106.17216 241.45112,119.35771 23.25867,2.11544 45.99054,-1.72081 66.42876,11.47785 l 0,0.23788 c 1.60122,1.04738 3.30301,2.12005 4.8766,3.38983 0.0748,0.60729 0.21887,1.06091 0.41626,0.89206 0.0134,-0.0115 0.0451,0.01 0.0595,0 0.0422,0.0246 0.0701,0.042 0.11899,0 0.0816,-0.0681 0.16293,-0.17185 0.23787,-0.23788 0.0749,0.066 0.15622,0.16975 0.23788,0.23788 0.0499,0.042 0.0768,0.0246 0.11898,0 0.0134,0.01 0.047,-0.0115 0.0595,0 0.19747,0.16881 0.34141,-0.28477 0.41635,-0.89206 1.57349,-1.26978 3.33477,-2.34245 4.936,-3.38983 l 0,-0.29735 c 20.42037,-13.14529 43.13688,-9.30534 66.36945,-11.41838 190.35888,-13.18555 181.24437,-35.86976 241.51043,-119.35771 1.44395,-0.12845 2.79386,-0.40487 4.22246,-0.5947 C 725.21397,541.7036 615.54996,614.1941 491.47591,571.58683 l 0,-0.29734 c -0.13789,0.048 -0.27837,0.0714 -0.41626,0.11898 -0.13664,-0.0473 -0.27962,-0.0714 -0.41635,-0.11898 l 0,0.29734 C 366.5724,614.18839 256.9036,541.69795 173.18869,271.55713 z m 31.28158,0 45.31663,63.15789 c 35.19199,19.00193 71.64878,38.26743 160.86832,26.16711 l 54.47519,-40.20219 20.22002,-2.02202 0,0.11895 5.70921,-0.65418 5.76861,0.65418 0,-0.0596 20.22002,1.96254 54.47518,40.20219 c 89.21964,12.10033 125.61685,-7.16518 160.80884,-26.16711 L 777.64902,271.557 c 2.2044,0.29003 4.44364,0.65218 6.60112,0.83259 -53.75158,105.89356 -70.17412,82.08443 -226.99962,108.29616 -25.22798,1.80964 -55.13824,-1.30029 -65.06099,9.3369 -0.38853,0.41654 -0.80431,0.84848 -1.12989,1.30835 -0.32567,-0.45987 -0.74145,-0.89181 -1.12998,-1.30835 -9.92275,-10.63719 -39.83302,-7.52726 -65.061,-9.3369 -156.82559,-26.21172 -173.24813,-2.40259 -226.99962,-108.29616 2.15749,-0.1804 4.39672,-0.54256 6.60123,-0.83259 z m 53.16682,149.98512 c 6.16683,14.04001 16.2598,28.8399 50.01485,49.77699 l 7.25545,31.46 5.70911,-27.65388 c 18.75045,2.93761 38.83843,8.64207 61.07651,18.55485 l 12.96456,29.55695 5.53083,-27.65388 c 22.33394,-3.96163 48.45393,-2.99246 76.00348,0 l 14.68928,39.66696 0,0.95153 0.17839,-0.47578 0.17828,0.47578 0,-0.95153 14.74869,-39.66696 c 27.54964,-2.99246 53.61004,-3.96163 75.94407,0 l 5.53083,27.65388 12.96466,-29.55695 c 22.23798,-9.91278 42.32596,-15.61724 61.07641,-18.55485 l 5.76861,27.65388 7.19596,-31.46 c 33.75514,-20.93709 43.84821,-35.73698 50.01475,-49.77699 -7.57806,11.99064 -23.40769,25.14224 -53.64238,40.6185 l -7.43403,-36.99078 -3.62763,40.61849 c -14.59745,10.78805 -37.93423,14.49533 -61.01672,18.49538 l -9.39634,-33.18465 -7.43393,31.51948 c -22.94671,7.82845 -49.07591,7.94311 -77.25234,3.56823 l -13.44042,-32.47101 0,-0.89205 -0.17838,0.4163 -0.17829,-0.4163 0,0.89205 -13.44051,32.47101 c -28.17662,4.37488 -54.30592,4.26022 -77.25244,-3.56823 l -7.43393,-31.51948 -9.33684,33.18465 c -23.08249,-4.00005 -46.47895,-7.70733 -61.07641,-18.49538 l -3.62772,-40.61849 -7.43384,36.99078 c -30.23479,-15.47626 -46.06432,-28.62786 -53.64257,-40.6185 z"
         id="path11704"
         inkscape:connector-curvature="0" />
      <text
         xml:space="preserve"
         style="font-size:20.46465302px;font-style:normal;font-variant:normal;font-weight:normal;font-stretch:normal;line-height:125%;letter-spacing:0px;word-spacing:0px;fill:#000000;fill-opacity:1;stroke:none;font-family:CreativeBlock BB extended;-inkscape-font-specification:CreativeBlock BB extended"
         x="748.15997"
         y="884.38776"
         id="text5056"
         sodipodi:linespacing="125%"><tspan
           sodipodi:role="line"
           id="tspan5058"
           x="748.15997"
           y="884.38776">felix@moomug.com</tspan></text>
    </g>
  </g>
</svg>
